<svg width="1440" height="745" viewBox="0 0 1440 745" fill="none" xmlns="http://www.w3.org/2000/svg">
<mask id="mask0_1509_6163" style="mask-type:alpha" maskUnits="userSpaceOnUse" x="441" y="97" width="977" height="983">
<path d="M1356.4 104.36H1355.99C1333.06 95.3531 1306.86 95.3531 1282.71 105.997L441 391.751V802.779L1098.07 422.046L779.975 1079.12H1177.49L1411.66 227.177C1430.5 178.05 1405.93 123.192 1356.81 104.36" fill="#D4E8FF"/>
</mask>
<g mask="url(#mask0_1509_6163)">
<path d="M1658.26 953H195V951H1658.26V953ZM1658.26 941H195V939H1658.26V941ZM1658.26 929H195V927H1658.26V929ZM1658.26 917H195V915H1658.26V917ZM1658.26 905H195V903H1658.26V905ZM1658.26 893H195V891H1658.26V893ZM1658.26 881H195V879H1658.26V881ZM1658.26 869H195V867H1658.26V869ZM1658.26 857H195V855H1658.26V857ZM1658.26 845H195V843H1658.26V845ZM1658.26 833H195V831H1658.26V833ZM1658.26 821H195V819H1658.26V821ZM1658.26 809H195V807H1658.26V809ZM1658.26 797H195V795H1658.26V797ZM1658.26 785H195V783H1658.26V785ZM1658.26 773H195V771H1658.26V773ZM1658.26 761H195V759H1658.26V761ZM1658.26 749H195V747H1658.26V749ZM1658.26 737H195V735H1658.26V737ZM1658.26 725H195V723H1658.26V725ZM1658.26 713H195V711H1658.26V713ZM1658.26 701H195V699H1658.26V701ZM1658.26 689H195V687H1658.26V689ZM1658.26 677H195V675H1658.26V677ZM1658.26 665H195V663H1658.26V665ZM1658.26 653H195V651H1658.26V653ZM1658.26 641H195V639H1658.26V641ZM1658.26 629H195V627H1658.26V629ZM1658.26 617H195V615H1658.26V617ZM1658.26 605H195V603H1658.26V605ZM1658.26 593H195V591H1658.26V593ZM1658.26 581H195V579H1658.26V581ZM1658.26 569H195V567H1658.26V569ZM1658.26 557H195V555H1658.26V557ZM1658.26 545H195V543H1658.26V545ZM1658.26 533H195V531H1658.26V533ZM1658.26 521H195V519H1658.26V521ZM1658.26 509H195V507H1658.26V509ZM1658.26 497H195V495H1658.26V497ZM1658.26 485H195V483H1658.26V485ZM1658.26 473H195V471H1658.26V473ZM1658.26 461H195V459H1658.26V461ZM1658.26 449H195V447H1658.26V449ZM1658.26 437H195V435H1658.26V437ZM1658.26 425H195V423H1658.26V425ZM1658.26 413H195V411H1658.26V413ZM1658.26 401H195V399H1658.26V401ZM1658.26 389H195V387H1658.26V389ZM1658.26 377H195V375H1658.26V377ZM1658.26 365H195V363H1658.26V365ZM1658.26 353H195V351H1658.26V353ZM1658.26 341H195V339H1658.26V341ZM1658.26 329H195V327H1658.26V329ZM1658.26 317H195V315H1658.26V317ZM1658.26 305H195V303H1658.26V305ZM1658.26 293H195V291H1658.26V293ZM1658.26 281H195V279H1658.26V281ZM1658.26 269H195V267H1658.26V269ZM1658.26 257H195V255H1658.26V257ZM1658.26 245H195V243H1658.26V245ZM1658.26 233H195V231H1658.26V233ZM1658.26 221H195V219H1658.26V221ZM1658.26 209H195V207H1658.26V209ZM1658.26 197H195V195H1658.26V197ZM1658.26 185H195V183H1658.26V185ZM1658.26 173H195V171H1658.26V173ZM1658.26 161H195V159H1658.26V161ZM1658.26 149H195V147H1658.26V149ZM1658.26 137H195V135H1658.26V137ZM1658.26 125H195V123H1658.26V125ZM1658.26 113H195V111H1658.26V113ZM1658.26 101H195V99H1658.26V101ZM1658.26 89H195V87H1658.26V89ZM1658.26 77H195V75H1658.26V77ZM1658.26 65H195V63H1658.26V65Z" fill="url(#paint0_linear_1509_6163)"/>
</g>
<defs>
<linearGradient id="paint0_linear_1509_6163" x1="1415" y1="220" x2="485.932" y2="668.929" gradientUnits="userSpaceOnUse">
<stop stop-color="#05617A"/>
<stop offset="1" stop-color="#032A33" stop-opacity="0"/>
</linearGradient>
</defs>
</svg>
